<?xml version="1.0" encoding="utf-8"?>
<?xml-stylesheet type="text/xsl" href="rss1.xsl"?>
<rss version="2.0" xmlns:atom="http://www.w3.org/2005/Atom" xmlns:content="http://purl.org/rss/1.0/modules/content/" xmlns:dc="http://purl.org/dc/elements/1.1/" xmlns:media="http://search.yahoo.com/mrss/">
<channel>
 <title>Getty</title>
 <link>http://www.gettyimg.com/</link>
 <atom:link href="http://www.gettyimg.com/" rel="self" type="application/rss+xml" />

 
                <item>
                <title><![CDATA[【HD Live Performances】WEB-RiP - Olivia Rodrigo - Radio 1s Live Lounge |BBC WEB-RIP.1080p-fstambuk|]]></title>
                <link><![CDATA[https://sharemania.us/threads/olivia-rodrigo-radio-1s-live-lounge-bbc-web-rip-1080p-fstambuk.229625/]]></link>
                <description><![CDATA[<article>
<blockquote class="messageText SelectQuoteContainer ugc baseHtml">
<div style="text-align: center"><img src="https://i.imgur.com/QwQb6wo.png" class="bbCodeImage LbImage" alt="[​IMG]" data-url="https://i.imgur.com/QwQb6wo.png" style=""><br>
<img src="https://i.imgur.com/S2OJJAU.gif" class="bbCodeImage LbImage" alt="[​IMG]" data-url="https://i.imgur.com/S2OJJAU.gif" style=""><br>
<br>
<i>Olivia Rodrigo kicks off Live Lounge month 2023 with a special BBC Radio 1 session recorded at the Hollywood Forever cemetery, in Los Angeles, California. Performing, get him back!, vampire and a cover of Noah Kahan's Stick Season.</i><br>
<br>
​</div>
<div class="ToggleTriggerAnchor bbCodeSpoilerContainer">
<button type="button" class="button bbCodeSpoilerButton ToggleTrigger Tooltip JsOnly" data-target="> .SpoilerTarget"><span>Spoiler: <span class="SpoilerTitle">Radio 1s Live Lounge</span></span></button>
<div class="SpoilerTarget bbCodeSpoilerText">
<div class="bbCodeBlock bbCodeCode">
<div class="type">Code:</div>
<pre>Format                                   : MPEG-4
Format profile                           : Base Media
Codec ID                                 : isom (isom/iso2/avc1/mp41)
File size                                : 494 MiB
Duration                                 : 10 min 34 s
Overall bit rate mode                    : Variable
Overall bit rate                         : 6 527 kb/s
Collection                               : Radio 1's Live Lounge
Album                                    : Radio 1's Live Lounge
Album/Performer                          : BBC TV
Track name                               : Olivia Rodrigo
Grouping                                 : Performances &amp; Events,Music
Performer                                : BBC Radio 1
Composer                                 : BBC iPlayer
Genre                                    : Performances &amp; Events
ContentType                              : TV Show
Description                              : Olivia Rodrigo kicks off Radio 1's Live Lounge Month 2024.
Recorded date                            : UTC 2023-10-02 16:34:04
Tagged date                              : UTC 2023-10-02 16:34:04
Copyright                                : 2023 British Broadcasting Corporation, all rights reserved
Cover                                    : Yes
Lyrics                                   : Olivia Rodrigo kicks off Live Lounge month 2023 with a special BBC Radio 1 session recorded at the Hollywood Forever cemetery, in Los Angeles, California. Performing, get him back!, vampire and a cover of Noah Kahan's Stick Season. /  / PLAY: https://www.bbc.co.uk/iplayer/episode/p0gd8fzy /  / INFO: https://www.bbc.co.uk/programmes/p0gd8fzy
Comment                                  : Olivia Rodrigo kicks off Radio 1's Live Lounge Month 2024.
Part_ID                                  : p0gd8fzy
TVNetworkName                            : BBC Radio 1
LongDescription                          : Olivia Rodrigo kicks off Live Lounge month 2023 with a special BBC Radio 1 session recorded at the Hollywood Forever cemetery, in Los Angeles, California. Performing, get him back!, vampire and a cover of Noah Kahan's Stick Season. /  / PLAY: https://www.bbc.co.uk/iplayer/episode/p0gd8fzy /  / INFO: https://www.bbc.co.uk/programmes/p0gd8fzy

Video
ID                                       : 1
Format                                   : AVC
Format/Info                              : Advanced Video Codec
Format profile                           : High@L4.2
Format settings                          : CABAC / 4 Ref Frames
Format settings, CABAC                   : Yes
Format settings, Reference frames        : 4 frames
Codec ID                                 : avc1
Codec ID/Info                            : Advanced Video Coding
Duration                                 : 10 min 34 s
Bit rate mode                            : Variable
Bit rate                                 : 6 390 kb/s
Maximum bit rate                         : 12.0 Mb/s
Width                                    : 1 920 pixels
Height                                   : 1 080 pixels
Display aspect ratio                     : 16:9
Frame rate mode                          : Constant
Frame rate                               : 50.000 FPS
Color space                              : YUV
Chroma subsampling                       : 4:2:0
Bit depth                                : 8 bits
Scan type                                : Progressive
Bits/(Pixel*Frame)                       : 0.062
Stream size                              : 483 MiB (98%)
Color range                              : Limited
Color primaries                          : BT.709
Transfer characteristics                 : BT.709
Matrix coefficients                      : BT.709
Codec configuration box                  : avcC

Audio
ID                                       : 2
Format                                   : AAC LC
Format/Info                              : Advanced Audio Codec Low Complexity
Codec ID                                 : mp4a-40-2
Duration                                 : 10 min 34 s
Bit rate mode                            : Variable
Bit rate                                 : 128 kb/s
Maximum bit rate                         : 132 kb/s / 132 kb/s
Channel(s)                               : 2 channels
Channel layout                           : L R
Sampling rate                            : 48.0 kHz
Frame rate                               : 46.875 FPS (1024 SPF)
Compression mode                         : Lossy
Stream size                              : 9.68 MiB (2%)
Language                                 : English
Default                                  : Yes
Alternate group                          : 1</pre>
</div><div style="text-align: center">​</div></div>
</div><div style="text-align: center">
<div class="bbCodeBlock bbCodeVfcHH HiddenContent">
<div class="attribution type">Hidden Content:</div>
<blockquote>You must reply before you can see the hidden data contained here.</blockquote>
</div><img src="https://ichef.bbci.co.uk/images/ic/640x360/p0ghxf75.jpg" class="bbCodeImage LbImage" alt="[​IMG]" data-url="https://ichef.bbci.co.uk/images/ic/640x360/p0ghxf75.jpg" style="">​</div>
<div class="messageTextEndMarker">&nbsp;</div>
</blockquote>
</article>]]></description>
                <author><![CDATA[fstambuk]]></author>
                </item>

                </channel></rss>